<svg id="Livello_1" data-name="Livello 1" xmlns="http://www.w3.org/2000/svg" viewBox="0 0 1280 312.1"><title>logo</title><path d="M190,258.38q0,22.68-15.78,44.52a110.86,110.86,0,0,1-36.89,33q-2.37,1.26.4,2.52A75.71,75.71,0,0,1,165,359.18q17,20.79,17,48.94,0,30-25.45,54.81-28.2,27.72-70.42,27.72-3.36,0-35.6-1.26T1.64,488.13c-1.31,0-1.84-.84-1.57-2.52a37.5,37.5,0,0,1,.79-6.51c0-1.4.52-2.1,1.57-2.1H15.85q10,0,10.85-8.61,6.3-60.48,13-125.17,4.53-41.16,9.66-86.94c.4-3.92.72-8.47,1-13.65a118.26,118.26,0,0,0,0-19.33c-.53-6.43-1.84-9.66-3.95-9.66l-24.85.84c-.79-.13-1.38-.84-1.78-2.1a41.48,41.48,0,0,1,.79-6.93c0-1.39.86-2.1,2.57-2.1q8.87,0,20.51-.42t18.74-.42q7.11,0,30.48-.84t30.47-.84q24.47,0,41.23,9.66Q190,225,190,258.38ZM150.77,407.55q0-26.25-16.57-45.15-18.15-21-47.73-21-8.1,0-16.18.42-2.76,0-3.15,3.78-.4,3.15-8.88,79.59-2.76,26.06-2.76,36.34,0,15.33,8.48,15.33,42.8,0,63.32-15.12Q150.77,444.52,150.77,407.55Zm10.85-140.29q0-26-18.14-40.53A53,53,0,0,0,109.55,215q-16.77,0-23.48.84-3,.21-3.55,2.52-6.31,51.24-13.41,107.95A4.77,4.77,0,0,0,69.6,330a3,3,0,0,0,2.86.95A234.23,234.23,0,0,1,120,334.05a6,6,0,0,0,3-.42Q161.61,316.2,161.62,267.26Z" transform="translate(0 -195.21)"/><path d="M497.56,212.21q0,9.72-13.41,28.93-18,25.77-93.7,108.8c-1.06,1.19-3.09,3.44-6.12,6.74-.66.79-.85,1.38-.59,1.78s2.17.54,2.17.54H431.6c.89.26,1.4.64,1.53,1.15a14.13,14.13,0,0,1-2.67,8.25,5.74,5.74,0,0,1-4.78,1.92H374.27a15.21,15.21,0,0,0-3.75,1.81q-46.35,52.32-71.8,89c-1.58,2.12-2.17,3.5-1.77,4.16s1.51.47,3.35-.2q10.45-2.37,57.4-2.37,21.9,0,47.34,1t29,1q16.57,0,21.5-4.76,5.52-5.75,5.53,1.59a103,103,0,0,1-2.76,25.16q-1.19,4.36-4.94,5.16a93.74,93.74,0,0,1-14.4,1q-4.14,0-51.48-2.58-39.25-2-74.57-2-17.75,0-34.91,1.19-4.93.39-9.17,1c-2.83.4-4.44.59-4.84.59q-3.74,0-3.35-2.77c0-.92,1.64-3.77,4.93-8.52q7.69-11.49,70.62-86.4,5.32-6.34,18.74-20.41c1.45-1.59-1.38-2.61-1.38-2.61H326.94q-2.67,0-2.67-1.92c-.38-1.92.25-4.15,1.91-6.71A4.87,4.87,0,0,1,331,359h33.25s2.89-.54,3.55-1.33q29.4-32.9,63.52-71.54Q440,276,451,261.75q2.36-4.35-6.12-4.75-13.81-1-48.33-5a493.87,493.87,0,0,0-54.64-3.17q-42,0-42,23,0,11.89,5.33,14.27,3.56,1.78,3.55,2.77,0,3.77-4.34,3.77-5.71,0-8.88-2.38-7.68-5.94-7.69-16.25,0-16.65,13.81-33.49,16.36-20.22,40.64-20.21,11,0,55.43,7.33a298.54,298.54,0,0,0,50.1,4.16q19.13,0,25.45-4.16,8.47-5.55,5.92-26c-.4-3.57-.14-5.61.78-6.14q2.17-1,6.12.79Q497.55,201.91,497.56,212.21Z" transform="translate(0 -195.21)"/><path d="M627.56,313.47q0,2.73-5.72,7.56-36.9,32.55-93.7,63.63a6.93,6.93,0,0,0-4.15,5.25q-1.18,6.09-1.18,18.9,0,27.53,12,42.43,10.65,13,26.44,13,25.05,0,50.1-23.53,1.38-1.46,2.76-.42a16.24,16.24,0,0,1,2.37,2.94c.66,1.26.66,2.25,0,2.94Q609,457.76,594,468.67q-30,21.84-55,21.84-17.18,0-28.8-20.58-12.82-22.68-12.83-61.54,0-52.08,36.69-90.3,24.86-25.83,44.59-25.83,28.2,0,31,21.63.58,3.36,3.74,3.36,1,0,5.43-4.94c3-3.29,4.76-4.79,5.42-4.51Q627.56,309.06,627.56,313.47Zm-41.63,20.16a20.66,20.66,0,0,0-5.32-15.12Q574.88,312,567.19,312a31.35,31.35,0,0,0-24.06,10.5q-11.45,12-16.18,48.93c-.26,1.82-.13,2.87.4,3.15a4,4,0,0,0,2.36-.63,303.21,303.21,0,0,0,54.84-35.28Q585.54,338,585.93,333.63Z" transform="translate(0 -195.21)"/><path d="M772.35,304.87q0,6.09-5.13,11.55a17.86,17.86,0,0,1-13.41,6.09,108.44,108.44,0,0,1-22.1-2.73,5.93,5.93,0,0,0-5.33,1.26q-12.82,11.76-25.84,35.28-18,32.57-23.47,64.69-3.17,17.64-8.48,62.79-.6,4.2-4.34,4.2H645.9q-3.75,0-3.15-3.78,4.53-26.25,13.8-87,6.32-49.56,6.32-74.34,0-4-2-3.57-8.48,3.36-21.3,14.7c-1.06,1-1.91,1.12-2.56.42a27.69,27.69,0,0,1-2.77-2.94,2.22,2.22,0,0,1,.4-2.73,148.3,148.3,0,0,1,40.83-31.71q8.09-4.41,11.25-4.41,3,0,3,4a90.78,90.78,0,0,1-.59,10.71q-3,37-6.31,61.53-1,5.67-.39,6.09c.65-.55,1.57-2.31,2.76-5.25q10.46-26,32-52.08,20.91-25.41,39.65-25.41Q772.35,292.27,772.35,304.87Z" transform="translate(0 -195.21)"/><path d="M1033.45,400.42a538.24,538.24,0,0,1-57.81,58.18,5,5,0,0,0-2,4.65c.4,1.84,1.79,2.75,4.17,2.75h43.52q39.33,0,59-5.29a40.8,40.8,0,0,1,5.56-1.27,2.26,2.26,0,0,1,2.58,2.54c0,1.56-1,3.88-3,7q-3.57,7.2-8.14,16.5c-1.59,1.69-2.65,2.54-3.18,2.54H940.27c-2,0-2.65-2.18-2-6.56q.6-4.44,7-9.09,48.87-36,79.67-78.27,37.75-52,43.12-111.9.39-4.44.39-8.68,0-23.47-11.12-37.23t-28.61-13.75q-28.62,0-48.88,13.75a56.57,56.57,0,0,0-15.1,14.81c-1.46,2.12-2.65,3-3.58,2.54q-5.16-1.91-1.39-9.1a76.08,76.08,0,0,1,28.61-29.82q22.26-13.55,49.68-13.54,26.61,0,41.52,20.1,13.11,17.76,13.11,44.63,0,32.16-19.07,72.34A277.44,277.44,0,0,1,1033.45,400.42Z" transform="translate(0 -195.21)"/><path d="M1279.9,213.92a17.18,17.18,0,0,1-3,7.77q-7.89,12-37.48,57.33a702.45,702.45,0,0,0-43.39,76.45q-21.32,43-29,71-8.88,33-12.43,55-1.77,10.71.79,18.06a15.26,15.26,0,0,1,.79,4.41,3.16,3.16,0,0,1-2.76,3.36,11,11,0,0,1-3.75-.42,35.29,35.29,0,0,1-12.33-9.77,18.75,18.75,0,0,1-3.85-13.33q1.38-13.65,7.7-36.33a432.83,432.83,0,0,1,24.26-63.64q25.44-53.55,54-96.19,13.21-17.83,29.59-41.37,3.15-4.41,3.55-6.51,0-2.31-4.34-1.26-20.71,5.25-68.25,5.25-38.08,0-51.49-7.56c-1.31-.7-1.84-1.61-1.58-2.73a8,8,0,0,1,1.78-4.41q2.76-4.62,9.27-19.74,1.38-3.36,3.94-3.36,1.38,0,8.88,2.52,22.48,7.77,60.17,7.77,31.15,0,57-6.93a30,30,0,0,1,7.3-.84C1278.92,208.46,1280.42,210.28,1279.9,213.92Z" transform="translate(0 -195.21)"/><path d="M780.89,457.86c-17.48-33.13-5.68-85.15,30.35-124.1,40.92-44.21,97.56-54.81,126.52-23.68a.69.69,0,0,0,.11.13C932.11,328.38,913.72,367,858.49,388,807.89,407.19,788.41,437.65,780.89,457.86Zm165-136.44a127.88,127.88,0,0,1-25.11,39.64c-13.2,14.27-32,28.29-58.56,38.39-54,20.48-69,53.92-73.2,70.11.2.22.37.44.56.65,29,31.14,85.61,20.54,126.52-23.68C952.52,407.18,964.18,354.5,945.91,321.42Z" transform="translate(0 -195.21)"/></svg>